<svg xmlns="http://www.w3.org/2000/svg" width="289.624" height="233.692" viewBox="0 0 289.624 233.692">
  <path id="Контур_56660" data-name="Контур 56660" d="M385.139,675.324c-7.809-19.28,3.324-39.144,7.311-57.9,1.918-9.023,2.43-18.741-2.372-26.97-2.326-3.987-5.452-7.44-7.8-11.419a54,54,0,0,1-5.266-12.687c-2.872-10.063-3.327-20.651-3.758-31.045-.02-.476-.513-.99-1.026-.782-6.284,2.545-12.718-1.008-16.49-6.061-3.716-4.978-5.749-11.365-7.055-17.366a59.318,59.318,0,0,1,4.458-37.771l-1.273.164c7.971,8.417,13.606,19.057,17.33,29.97,3.644,10.681,5.742,22.79,2.858,33.9l1.482-.194a89.473,89.473,0,0,1-10.661-21.173c-2.628-7.33-4.872-15.632-3.776-23.478l-1.355.358a48.145,48.145,0,0,1,13.195,23.146,47.581,47.581,0,0,1,1.09,13.882c-.279,5.115-.86,10.154-.451,15.282.756,9.483,4.111,18.57,8.271,27.05q1.523,3.105,3.225,6.122a7.444,7.444,0,0,0,3.447,3.534c3.245,1.216,5.861-1.355,6.966-4.216,1.623-4.2,1.381-9.24.837-13.625a77.773,77.773,0,0,0-3.558-14.439c-2.994-9.182-6.647-18.266-6.818-28.061a27.892,27.892,0,0,1,3.129-13.653c1.981-3.723,4.785-6.962,5.927-11.1,1.286-4.655-.8-9.384-2.223-13.74a128.958,128.958,0,0,1-3.894-14.825c-2.632-13.188-2.684-27.009,1.454-39.891a56.188,56.188,0,0,1,20.567-28.757l-1.109-.291a69.908,69.908,0,0,1,8.23,49.5,71.973,71.973,0,0,1-24.645,40.129l1.355.358c-4.136-10.446,4.189-20.82,10.943-27.954a97.749,97.749,0,0,1,26.293-19.574l-1.22-.7c-.32,9.608-1.934,19.255-6.377,27.873a38.451,38.451,0,0,1-17.834,17.311,30.91,30.91,0,0,1-5.849,1.964c-1.932.458-4.277.341-6.043,1.317a6.109,6.109,0,0,0-2.825,3.972c-.748,2.478-1.267,5.048-1.77,7.585a109.984,109.984,0,0,0,1.443,48.6.814.814,0,0,0,1.592-.215,31.064,31.064,0,0,1,5.8-16.833c3.905-5.556,9.437-8.816,15.331-11.894,5.67-2.962,10.418-6.456,13.49-12.2,2.87-5.362,3.977-11.509,4.935-17.448.087-.538-.358-1.246-1-1a49.3,49.3,0,0,0-19.37,13.608,46.16,46.16,0,0,0-6.484,9.773c-2.014,4.059-3.132,8.436-4.441,12.752-1.43,4.717-3.968,8.808-5.783,13.349a29.718,29.718,0,0,0-1.789,13.077c.586,9.385,3.856,18.582,1.83,28.011-.473,2.2-1.132,4.355-1.59,6.559a33.534,33.534,0,0,0-.58,7.044c.03,4.8.5,9.549.29,14.354-.423,9.655-2.5,19.156-4.444,28.593-3.537,17.167-6.846,35.585-.128,52.433.382.959,1.951.541,1.563-.431-7.6-19.058-2.21-39.655,1.623-58.9,2-10.038,3.479-20.132,2.958-30.392-.128-2.513-.281-5.019-.227-7.536a36.149,36.149,0,0,1,1.362-8.313,40.626,40.626,0,0,0,1.328-13.776c-.637-7.888-3.035-15.627-2.314-23.6.382-4.231,2.189-7.929,4.085-11.658a66.941,66.941,0,0,0,4.4-11.839,48.157,48.157,0,0,1,10.454-19.441,46.869,46.869,0,0,1,17.689-12.1l-1-1c-.993,6.157-2.171,12.418-5.243,17.923-3.433,6.15-9.353,9.1-15.335,12.267a36.621,36.621,0,0,0-13.574,11.768,32.015,32.015,0,0,0-5.462,16.843l1.592-.215a110.07,110.07,0,0,1-3.378-30.469,107.634,107.634,0,0,1,1.6-15.474c.419-2.4.939-4.774,1.519-7.136.263-1.07.529-2.142.891-3.183.572-1.647,1.906-2.23,3.485-2.54,1.968-.386,3.916-.617,5.853-1.175A33.658,33.658,0,0,0,406.687,487a37.835,37.835,0,0,0,9.623-7.047c6.177-6.107,9.957-14.151,12.01-22.506a79.87,79.87,0,0,0,2.056-16.4.819.819,0,0,0-1.22-.7,100.362,100.362,0,0,0-27.373,20.625c-6.9,7.374-14.811,18.122-10.609,28.734a.825.825,0,0,0,1.355.357,73.841,73.841,0,0,0,25.061-40.844,71.266,71.266,0,0,0-8.394-50.752.813.813,0,0,0-1.109-.291c-13.635,9.647-21.749,25.217-23.99,41.571a89.173,89.173,0,0,0,1.344,29.508,129.086,129.086,0,0,0,3.965,14.807,64.9,64.9,0,0,1,2.11,7.035,12.486,12.486,0,0,1-1.053,7.909c-1.8,3.9-4.634,7.187-6.243,11.21a31.214,31.214,0,0,0-1.846,12.961c.429,9.532,4.1,18.484,7.016,27.442a71.56,71.56,0,0,1,3.507,15.21c.413,4.26.668,10.164-2.35,13.6-3.917,4.464-7.484-4.431-8.775-6.971a95.672,95.672,0,0,1-5.8-13.9,58.321,58.321,0,0,1-2.957-18.649c.079-6.365,1.153-12.613.425-18.984a49,49,0,0,0-14.555-29.212c-.391-.382-1.267-.275-1.355.358-1.1,7.87.924,15.99,3.448,23.4a89.754,89.754,0,0,0,11.153,22.5.819.819,0,0,0,1.482-.194c2.925-11.271.877-23.429-2.7-34.3-3.738-11.35-9.648-22.432-17.9-31.147a.815.815,0,0,0-1.273.164,61.6,61.6,0,0,0-4.253,40.641c1.506,6.345,4,12.961,8.3,17.951,4.046,4.694,10.888,7.408,16.867,4.986l-1.026-.781c.372,8.963.833,17.958,2.663,26.763a65.67,65.67,0,0,0,3.912,12.494,58.609,58.609,0,0,0,7.023,11.682c2.9,3.935,5.375,7.847,6.414,12.693,1.061,4.947.615,10.179-.2,15.125-1.626,9.877-5.344,19.261-7.917,28.9-2.845,10.659-4.194,22.316.051,32.8.387.956,1.956.539,1.563-.431Z" transform="matrix(0.559, -0.829, 0.829, 0.559, -523.386, 134.438)" fill="#cddce1"/>
</svg>
